Coordinates
version=1
nRows=25
nColumns=34
inDegrees=yes
inDegrees=no

Units are S.I. units (second, meters, Newtons, ...)
If the header above contains a line with 'inDegrees', this indicates whether rotational values are in degrees (yes) or radians (no).

endheader
time	pelvis_tilt	pelvis_list	pelvis_rotation	pelvis_tx	pelvis_ty	pelvis_tz	hip_flexion_r	hip_adduction_r	hip_rotation_r	knee_angle_r	ankle_angle_r	subtalar_angle_r	mtp_angle_r	hip_flexion_l	hip_adduction_l	hip_rotation_l	knee_angle_l	ankle_angle_l	subtalar_angle_l	mtp_angle_l	lumbar_extension	lumbar_bending	lumbar_rotation	arm_flex_r	arm_add_r	arm_rot_r	elbow_flex_r	pro_sup_r	arm_flex_l	arm_add_l	arm_rot_l	elbow_flex_l	pro_sup_l
11.850000 -0.005828 0.104260 0.112708 -0.001200 0.007794 -0.004881 1.638236 -0.067038 0.014255 0.920577 -0.252268 -0.526547 0.000000 1.605472 -0.073971 -0.408861 1.071141 -0.165808 -0.168804 0.000000 -1.079089 0.207853 0.358514 1.992205 -0.354379 0.854064 0.326556 1.159288 2.793709 0.019930 0.722110 0.992090 1.122047
11.866667 -0.023019 0.089436 0.097749 -0.000995 0.007546 -0.004921 1.684057 -0.053615 -0.000056 0.966266 -0.212528 -0.506514 0.000000 1.651560 -0.110899 -0.407645 1.137711 -0.091192 -0.131468 0.000000 -1.072511 0.222714 0.341235 1.944373 -0.332596 0.856452 0.330573 1.145363 2.733720 0.029845 0.652237 0.986513 1.120668
11.883333 -0.034281 0.081257 0.089042 -0.001094 0.007522 -0.004870 1.703370 -0.048778 -0.005201 0.978171 -0.199597 -0.467256 0.000000 1.673648 -0.131018 -0.411889 1.162425 -0.078461 -0.131418 0.000000 -1.080460 0.229241 0.305186 1.900887 -0.306571 0.855110 0.337950 1.138443 2.701391 0.043125 0.612524 0.964632 1.124540
11.900000 -0.046161 0.071394 0.077674 -0.001011 0.007402 -0.004888 1.728254 -0.039046 -0.021262 0.990673 -0.170055 -0.428147 0.000000 1.703231 -0.152440 -0.403849 1.197495 -0.043945 -0.120026 0.000000 -1.082412 0.234196 0.281390 1.848447 -0.296837 0.835035 0.361855 1.128011 2.645430 0.072189 0.532787 0.948939 1.132852
11.916667 -0.065731 0.065570 0.060746 -0.000904 0.007271 -0.004943 1.760029 -0.029236 -0.033489 1.004140 -0.145913 -0.387731 0.000000 1.733791 -0.175658 -0.403931 1.226747 -0.015449 -0.097578 0.000000 -1.077385 0.229121 0.245102 1.789096 -0.281614 0.811798 0.397954 1.123731 2.598079 0.088785 0.473889 0.961869 1.136224
11.933333 -0.080013 0.058371 0.045047 -0.000975 0.007134 -0.004907 1.784737 -0.019426 -0.055190 1.001935 -0.133051 -0.345884 0.000000 1.761830 -0.197869 -0.400354 1.253396 0.015655 -0.067719 0.000000 -1.076527 0.226787 0.215736 1.737606 -0.266960 0.772458 0.428930 1.122466 2.557823 0.097426 0.412112 0.962072 1.135861
11.950000 -0.109043 0.050613 0.034846 -0.000714 0.007169 -0.004864 1.816613 -0.012605 -0.079084 1.010003 -0.120011 -0.321292 0.000000 1.799245 -0.222468 -0.399795 1.272973 0.038612 -0.043321 0.000000 -1.053683 0.226574 0.197826 1.646535 -0.275205 0.675473 0.496178 1.136464 2.496847 0.113980 0.344454 0.999305 1.135255
11.966667 -0.128450 0.053358 0.032591 -0.000673 0.007312 -0.004825 1.825024 -0.010299 -0.085317 1.008864 -0.108781 -0.291935 0.000000 1.801906 -0.242972 -0.417481 1.270185 0.058903 -0.018448 0.000000 -1.042123 0.223852 0.179737 1.560136 -0.285262 0.567554 0.553825 1.176071 2.440388 0.133115 0.302874 1.026173 1.137093
11.983333 -0.134395 0.052223 0.034587 -0.000686 0.007353 -0.004808 1.821803 -0.012046 -0.096395 1.002827 -0.092724 -0.264895 0.000000 1.786731 -0.254704 -0.434192 1.250094 0.057455 0.000892 0.000000 -1.047195 0.229044 0.167216 1.498850 -0.286023 0.469026 0.591757 1.252665 2.412150 0.145735 0.275233 1.017085 1.138712
12.000000 -0.150010 0.051717 0.033893 -0.000547 0.007421 -0.004820 1.834385 -0.013308 -0.112769 1.002532 -0.090808 -0.250885 0.000000 1.785857 -0.271784 -0.447404 1.244451 0.057970 0.007766 0.000000 -1.031470 0.236928 0.158980 1.437903 -0.292333 0.440629 0.618049 1.289537 2.353522 0.152149 0.264869 1.045603 1.139594
12.016667 -0.149196 0.053358 0.033954 -0.000592 0.007391 -0.004746 1.838682 -0.015557 -0.127237 1.006955 -0.099328 -0.230885 0.000000 1.776685 -0.286897 -0.461137 1.246321 0.063716 0.017338 0.000000 -1.029386 0.235520 0.153415 1.362297 -0.288475 0.342390 0.666723 1.350996 2.316594 0.173641 0.244805 1.018624 1.141189
12.033333 -0.149118 0.055226 0.036247 -0.000478 0.007444 -0.004764 1.839046 -0.018822 -0.128640 1.010598 -0.096897 -0.221243 0.000000 1.768915 -0.297717 -0.478446 1.252792 0.067668 0.021416 0.000000 -1.017614 0.239570 0.142583 1.268673 -0.280283 0.258249 0.719057 1.464296 2.256404 0.187270 0.232029 1.038727 1.151212
12.050000 -0.156429 0.053615 0.031381 -0.000304 0.007405 -0.004867 1.862122 -0.026429 -0.144892 1.044356 -0.075819 -0.190279 0.000000 1.781895 -0.311285 -0.480477 1.273647 0.070100 0.023625 0.000000 -0.984465 0.250236 0.141571 1.178961 -0.289573 0.244033 0.745874 1.491077 2.173051 0.195536 0.240158 1.081327 1.157427
12.066667 -0.156734 0.057619 0.025622 -0.000294 0.007380 -0.004853 1.869739 -0.029043 -0.145706 1.050831 -0.069696 -0.162396 0.000000 1.790272 -0.322520 -0.487527 1.297903 0.120050 0.063957 0.000000 -0.956662 0.253990 0.138699 1.080090 -0.291767 0.207681 0.771438 1.521481 2.095130 0.212265 0.230673 1.106455 1.165896
12.083333 -0.160997 0.060951 0.022367 -0.000297 0.007290 -0.004969 1.884278 -0.040964 -0.151263 1.062632 -0.062644 -0.129530 0.000000 1.800193 -0.320808 -0.492248 1.306693 0.131597 0.060181 0.000000 -0.918168 0.265496 0.124404 0.983730 -0.287354 0.180542 0.800665 1.564902 2.026127 0.214211 0.233994 1.111550 1.180427
12.100000 -0.165617 0.063386 0.023197 -0.000169 0.007447 -0.005108 1.884970 -0.061944 -0.153731 1.076066 -0.038473 -0.105928 0.000000 1.796392 -0.311762 -0.503512 1.319068 0.127813 0.040198 0.000000 -0.882395 0.283742 0.112179 0.894503 -0.295204 0.174712 0.796715 1.587818 1.946013 0.219192 0.241930 1.124068 1.191216
12.116667 -0.145896 0.067245 0.026810 -0.000403 0.007476 -0.005142 1.856004 -0.078396 -0.158698 1.048421 -0.043851 -0.057614 0.000000 1.767209 -0.291308 -0.511128 1.297873 0.130297 0.028911 0.000000 -0.877638 0.300506 0.093441 0.835509 -0.293008 0.175960 0.785621 1.600323 1.896385 0.217616 0.246540 1.113546 1.197337
12.133333 -0.111515 0.070133 0.025142 -0.000749 0.007574 -0.005076 1.806124 -0.079275 -0.166663 1.004796 -0.077864 -0.039037 0.000000 1.722873 -0.272104 -0.515223 1.256356 0.129180 0.018022 0.000000 -0.900788 0.305629 0.065541 0.805966 -0.275299 0.174782 0.788256 1.622435 1.885312 0.198699 0.262836 1.078216 1.208533
12.150000 -0.073078 0.073559 0.021080 -0.000978 0.007565 -0.005039 1.755127 -0.068642 -0.168907 0.966044 -0.095807 -0.028784 0.000000 1.678198 -0.259493 -0.511335 1.218330 0.118735 0.001524 0.000000 -0.921937 0.303548 0.038516 0.771826 -0.261084 0.186502 0.795325 1.645775 1.870980 0.181737 0.279665 1.036599 1.216547
12.166667 -0.030484 0.075753 0.014020 -0.001201 0.007693 -0.005032 1.688025 -0.057764 -0.171604 0.914275 -0.115736 -0.024664 0.000000 1.621636 -0.245875 -0.511729 1.171427 0.085936 -0.024649 0.000000 -0.953391 0.298860 0.008277 0.740801 -0.245660 0.201541 0.806446 1.663144 1.869688 0.159823 0.300137 0.991983 1.220013
12.183333 0.008593 0.078554 -0.001092 -0.001363 0.007880 -0.004961 1.618450 -0.035125 -0.175565 0.858477 -0.134286 -0.022735 0.000000 1.562729 -0.246640 -0.515403 1.126579 0.061587 -0.037808 0.000000 -0.976648 0.288084 -0.015216 0.702354 -0.231460 0.213673 0.812926 1.669891 1.840825 0.144095 0.305009 0.967883 1.219944
12.200000 0.046249 0.078304 -0.017559 -0.001482 0.008081 -0.004963 1.542678 -0.016178 -0.176753 0.793346 -0.151896 -0.006710 0.000000 1.506940 -0.250049 -0.515296 1.087914 0.057517 -0.025998 0.000000 -0.992031 0.278374 -0.027112 0.646374 -0.227136 0.212217 0.814008 1.675095 1.794296 0.153726 0.310606 0.937554 1.219928
12.216667 0.067795 0.077958 -0.037465 -0.001573 0.008025 -0.004977 1.503492 0.003577 -0.183799 0.754373 -0.176266 0.026597 0.000000 1.484996 -0.259342 -0.509282 1.079628 0.048074 -0.048894 0.000000 -0.973708 0.266151 -0.039535 0.568502 -0.227615 0.193628 0.828296 1.682405 1.752385 0.177646 0.307931 0.858311 1.219321
12.233333 0.083673 0.069617 -0.061678 -0.001572 0.007916 -0.004910 1.487805 0.025303 -0.189890 0.753833 -0.190732 0.019349 0.000000 1.472479 -0.278922 -0.489837 1.086572 0.059507 -0.050592 0.000000 -0.950183 0.252859 -0.044628 0.465979 -0.226733 0.135960 0.878716 1.693215 1.695115 0.196364 0.311967 0.834541 1.226045
12.250000 0.086957 0.069672 -0.075868 -0.001618 0.007968 -0.004942 1.484607 0.027941 -0.184719 0.764797 -0.196449 -0.042185 0.000000 1.472355 -0.282971 -0.480447 1.089786 0.075101 -0.068880 0.000000 -0.905095 0.244681 -0.079730 0.397597 -0.220095 0.129437 0.884280 1.696723 1.626659 0.193541 0.317097 0.815921 1.228777
